<svg width="82" height="82" viewBox="0 0 82 82" fill="none" xmlns="http://www.w3.org/2000/svg">
<g clip-path="url(#clip0)">
<path d="M78.7523 18.0931L41.521 0.119396C41.191 -0.0397988 40.8066 -0.0397988 40.4767 0.119396L3.24531 18.0931C2.83018 18.2934 2.56641 18.7139 2.56641 19.1748V62.8252C2.56641 63.2861 2.83018 63.7066 3.24531 63.9069L40.4765 81.8806C40.6415 81.9602 40.8202 82.0001 40.9988 82.0001C41.1774 82.0001 41.3559 81.9602 41.521 81.8806L78.7523 63.9069C79.1674 63.7066 79.4312 63.2861 79.4312 62.8252V19.1749C79.4312 18.7137 79.1672 18.2936 78.7523 18.0931ZM40.9988 2.53503L75.4671 19.1748L65.4755 23.9984C65.4122 23.9502 65.3454 23.9056 65.2721 23.8702L31.0379 7.34372L40.9988 2.53503ZM28.3251 8.70185L62.7434 25.3174L55.6941 28.7206L21.2901 12.1117L28.3251 8.70185ZM63.5486 27.5961V40.1758L56.9641 43.3545V30.7749L63.5486 27.5961ZM77.0288 62.0715L42.2 78.885V37.9023L50.5077 33.8917C51.1051 33.6033 51.3556 32.8853 51.0672 32.2877C50.7787 31.6905 50.0607 31.4397 49.4632 31.7283L40.9988 35.8147L37.6682 34.2067C37.0706 33.918 36.3526 34.1688 36.0642 34.7662C35.7758 35.3635 36.0263 36.0817 36.6236 36.3701L39.7976 37.9023V78.885L4.96875 62.0712V21.0885L31.4906 33.8922C31.659 33.9735 31.8369 34.012 32.0119 34.012C32.4584 34.012 32.8873 33.7618 33.0944 33.3328C33.3829 32.7354 33.1324 32.0172 32.535 31.7288L6.53043 19.1748L18.4629 13.4143L54.5451 30.8334C54.5504 30.8407 54.5563 30.8473 54.5618 30.8545V45.2684C54.5618 45.6818 54.7743 46.066 55.1244 46.2859C55.3188 46.4079 55.5406 46.4696 55.7631 46.4696C55.9412 46.4696 56.1198 46.43 56.2852 46.3501L65.2721 42.0116C65.6872 41.8113 65.951 41.391 65.951 40.9299V26.4366L77.0288 21.0887V62.0715Z" fill="#FA7814"/>
<path d="M14.8828 57.4123L9.41903 54.7747C8.82133 54.4859 8.10351 54.7367 7.81507 55.3341C7.52663 55.9315 7.77711 56.6496 8.37449 56.938L13.8382 59.5756C14.0066 59.657 14.1845 59.6954 14.3595 59.6954C14.8061 59.6954 15.235 59.4453 15.442 59.0162C15.7306 58.4187 15.4802 57.7009 14.8828 57.4123Z" fill="#FA7814"/>
<path d="M19.9114 54.1401L9.42674 49.0785C8.8292 48.79 8.11122 49.0405 7.82278 49.6381C7.5345 50.2355 7.78498 50.9536 8.38237 51.242L18.867 56.3036C19.0353 56.3848 19.2133 56.4234 19.3883 56.4234C19.8348 56.4234 20.2637 56.1733 20.4708 55.7442C20.7592 55.1465 20.5088 54.4284 19.9114 54.1401Z" fill="#FA7814"/>
</g>
<defs>
<clipPath id="clip0">
<rect width="82" height="82" fill="white"/>
</clipPath>
</defs>
</svg>
