<svg width="120" height="38" viewBox="0 0 120 38" fill="none" xmlns="http://www.w3.org/2000/svg">
<g clip-path="url(#clip0)">
<path d="M115.629 0H4.37113C1.95876 0 0 1.95542 0 4.36368V33.2834C0 35.6916 1.95876 37.6471 4.37113 37.6471H115.629C118.041 37.6471 120 35.6916 120 33.2834V4.36368C120 1.95542 118.041 0 115.629 0ZM118.742 33.2834C118.742 34.9918 117.34 36.3915 115.629 36.3915H4.37113C2.65979 36.3915 1.25773 34.9918 1.25773 33.2834V4.36368C1.25773 2.65526 2.65979 1.25559 4.37113 1.25559H115.629C117.34 1.25559 118.742 2.65526 118.742 4.36368V33.2834Z" fill="white"/>
<path d="M48.9073 14.5317C47.6908 13.2144 46.165 12.5352 44.3299 12.5352C42.4949 12.5352 40.9485 13.2144 39.732 14.5523C38.6392 15.7668 38.0825 17.2076 38.0825 18.8543C38.0825 20.5009 38.6598 21.9829 39.8145 23.218C40.9691 24.453 42.4949 25.091 44.3093 25.091C46 25.091 47.4227 24.5353 48.5568 23.465V24.8029H50.5361V18.5661C50.4949 17.0223 49.9382 15.6844 48.9073 14.5317ZM47.9794 21.0567C47.6083 21.7359 47.0928 22.2505 46.4537 22.621C45.8145 22.9915 45.0928 23.1768 44.3299 23.1768C43.5671 23.1768 42.8454 22.9915 42.2062 22.621C41.5671 22.2505 41.0516 21.7359 40.6805 21.0567C40.3093 20.3774 40.1031 19.6364 40.1031 18.8748C40.1031 17.6604 40.5155 16.6313 41.3609 15.7668C42.2062 14.9022 43.1753 14.4906 44.3299 14.4906C45.4846 14.4906 46.4537 14.9022 47.299 15.7668C48.1238 16.6107 48.5568 17.6604 48.5568 18.8748C48.5568 19.657 48.3712 20.398 47.9794 21.0567Z" fill="white"/>
<path d="M36.2475 12.8442L31.5465 21.3864H31.5259L26.8661 12.9677L26.7836 12.8442H24.6187L31.1547 24.6591L31.2166 24.7826H31.8558L38.4331 12.8442H36.2475Z" fill="white"/>
<path d="M102.66 14.4083C101.567 15.6227 101.01 17.0635 101.01 18.7102C101.01 18.8337 101.01 18.9572 101.01 19.0601V24.8029H102.99V23.3827L103.01 23.4032V18.7308C103.01 17.5164 103.423 16.4666 104.268 15.6227C105.113 14.7582 106.082 14.3465 107.258 14.3465H107.505V12.3911H107.258C105.423 12.3911 103.876 13.0704 102.66 14.4083Z" fill="white"/>
<path d="M83.9589 8.41846H81.9795V24.7823H83.9589V8.41846Z" fill="white"/>
<path d="M59.6083 12.3911C57.7732 12.3911 56.2268 13.0704 55.0103 14.3877C53.9175 15.6021 53.3608 17.043 53.3608 18.6896C53.3608 18.8131 53.3608 18.9366 53.3608 19.0396V28.9608H55.3402V23.3003C56.4742 24.3707 57.8969 24.9264 59.5877 24.9264C61.4021 24.9264 62.9072 24.2883 64.0825 23.0533C65.2371 21.8183 65.8145 20.3569 65.8145 18.6896C65.8145 17.043 65.2578 15.6021 64.165 14.3877C62.9897 13.0704 61.4433 12.3911 59.6083 12.3911ZM63.2578 20.9126C62.8866 21.5919 62.3712 22.1065 61.732 22.477C61.0928 22.8475 60.3712 23.0327 59.6083 23.0327C58.8454 23.0327 58.1237 22.8475 57.4846 22.477C56.8454 22.1065 56.3299 21.5919 55.9588 20.9126C55.5876 20.2334 55.3815 19.513 55.3815 18.7308C55.3815 17.5164 55.7938 16.4666 56.6392 15.6227C57.4846 14.7582 58.4536 14.3465 59.6083 14.3465C60.7629 14.3465 61.732 14.7582 62.5773 15.6227C63.4021 16.4666 63.8351 17.5164 63.8351 18.7308C63.8351 19.513 63.6495 20.254 63.2578 20.9126Z" fill="white"/>
<path d="M96.6597 14.5317C95.4638 13.2144 93.9174 12.5352 92.0824 12.5352C90.2473 12.5352 88.7009 13.2144 87.4844 14.5523C86.3917 15.7668 85.835 17.2076 85.835 18.8543C85.835 20.5009 86.4123 21.9829 87.5669 23.218C88.7216 24.453 90.2473 25.091 92.0618 25.091C93.7525 25.091 95.1752 24.5353 96.3092 23.465V24.8029H98.2886V18.5661C98.2267 17.0223 97.6906 15.6844 96.6597 14.5317ZM95.7319 21.0567C95.3607 21.7359 94.8453 22.2505 94.2061 22.621C93.5669 22.9915 92.8453 23.1768 92.0824 23.1768C91.3195 23.1768 90.5979 22.9915 89.9587 22.621C89.3195 22.2505 88.804 21.7359 88.4329 21.0567C88.0618 20.3774 87.8556 19.6364 87.8556 18.8748C87.8556 17.6604 88.268 16.6313 89.1133 15.7668C89.9587 14.9022 90.9278 14.4906 92.0824 14.4906C93.237 14.4906 94.2061 14.9022 95.0515 15.7668C95.8762 16.6107 96.3092 17.6604 96.3092 18.8748C96.2886 19.657 96.103 20.398 95.7319 21.0567Z" fill="white"/>
<path d="M73.7528 12.5352C71.9177 12.5352 70.3714 13.2144 69.1549 14.5523C68.0621 15.7668 67.5054 17.2076 67.5054 18.8543C67.5054 20.5009 68.0827 21.9829 69.2373 23.218C70.392 24.453 71.9177 25.091 73.7322 25.091C75.5466 25.091 77.0518 24.453 78.227 23.218C79.3817 21.9829 79.959 20.5215 79.959 18.8543C79.959 17.2076 79.4023 15.7462 78.3095 14.5523C77.1342 13.2144 75.5879 12.5352 73.7528 12.5352ZM77.4023 21.0567C77.0311 21.7359 76.5157 22.2505 75.8765 22.621C75.2373 22.9915 74.5157 23.1768 73.7528 23.1768C72.9899 23.1768 72.2683 22.9915 71.6291 22.621C70.9899 22.2505 70.4744 21.7359 70.1033 21.0567C69.7322 20.3774 69.526 19.6364 69.526 18.8748C69.526 17.6604 69.9384 16.6313 70.7837 15.7668C71.6291 14.9022 72.5982 14.4906 73.7528 14.4906C74.9074 14.4906 75.8765 14.9022 76.7219 15.7668C77.5466 16.6107 77.9796 17.6604 77.9796 18.8748C77.9796 19.657 77.794 20.398 77.4023 21.0567Z" fill="white"/>
<path d="M18.598 12.5352C16.763 12.5352 15.2166 13.2144 14.0001 14.5523C12.9073 15.7668 12.3506 17.2076 12.3506 18.8543C12.3506 20.5009 12.9279 21.9829 14.0825 23.218C15.2372 24.453 16.763 25.091 18.5774 25.091C20.3918 25.091 21.897 24.453 23.0516 23.218C23.5052 22.7445 23.8557 22.2299 24.1238 21.6948H21.7939C21.4846 22.0859 21.1135 22.3946 20.6805 22.6416C20.0413 23.0121 19.3197 23.1974 18.5568 23.1974C17.7939 23.1974 17.0722 23.0121 16.4331 22.6416C15.7939 22.2711 15.2784 21.7565 14.9073 21.0773C14.6599 20.645 14.4949 20.1922 14.4124 19.7188H24.5155H24.7423C24.7836 19.4306 24.8042 19.163 24.8042 18.8748C24.8042 17.2282 24.2475 15.7668 23.1547 14.5729C21.9795 13.2144 20.4331 12.5352 18.598 12.5352ZM18.598 14.4906C19.7526 14.4906 20.7217 14.9022 21.5671 15.7668C22.0825 16.3019 22.4537 16.9194 22.6392 17.5987H14.5362C14.7217 16.9194 15.0929 16.3019 15.6083 15.7668C16.4537 14.9022 17.4228 14.4906 18.598 14.4906Z" fill="white"/>
</g>
<defs>
<clipPath id="clip0">
<rect width="120" height="37.6471" fill="white"/>
</clipPath>
</defs>
</svg>
