<svg width="22" height="22" viewBox="0 0 22 22" fill="none" xmlns="http://www.w3.org/2000/svg">
<path d="M11 0C17.0751 0 22 4.92493 22 11C22 17.0751 17.0751 22 11 22C4.92493 22 0 17.0751 0 11C0.00680351 4.9278 4.9278 0.00680341 11 0ZM1.48654 14.8536L4.61484 15.3934C4.25677 14.0801 4.06341 12.7275 4.03924 11.3667H0.742464C0.783821 12.5637 1.03572 13.7441 1.48654 14.8536ZM21.2575 11.3667H17.9608C17.9366 12.7275 17.7432 14.0801 17.3852 15.3934L20.5135 14.8536C20.9643 13.7441 21.2162 12.5637 21.2575 11.3667ZM20.5135 7.14642L17.3852 6.60662C17.7432 7.91986 17.9366 9.27248 17.9608 10.6333H21.2575C21.2162 9.4363 20.9643 8.25591 20.5135 7.14642ZM10.6333 5.88726C9.3158 5.90409 8.0015 6.02404 6.70259 6.24622L5.40833 6.46948C5.01069 7.82264 4.79675 9.22306 4.77222 10.6333H10.6333V5.88726ZM6.57762 5.52345C7.91771 5.29447 9.27391 5.17075 10.6333 5.15392V0.753923C8.53127 0.955876 6.70527 2.88052 5.67044 5.68154L6.57762 5.52345ZM11.3667 5.15392C12.7261 5.17075 14.0819 5.29447 15.422 5.52345L16.3296 5.68047C15.2947 2.87873 13.4687 0.953369 11.3667 0.752311V5.15392ZM15.2971 6.24622C13.9983 6.02404 12.6842 5.90409 11.3667 5.88726V10.6333H17.2278C17.2033 9.22306 16.9893 7.82264 16.5917 6.46948L15.2971 6.24622ZM17.2278 11.3667H11.3667V16.1127C12.6842 16.0959 13.9985 15.976 15.2974 15.7538L16.5917 15.5305C16.9893 14.1774 17.2033 12.7769 17.2278 11.3667ZM15.4224 16.4765C14.0823 16.7059 12.7263 16.8301 11.3667 16.848V21.248C13.4687 21.0459 15.2947 19.1213 16.3296 16.3202L15.4224 16.4765ZM10.6333 16.848C9.27391 16.8301 7.91807 16.7059 6.57798 16.4765L5.67044 16.3195C6.70527 19.1213 8.53127 21.0466 10.6333 21.2477V16.848ZM6.70295 15.7538C8.00168 15.976 9.3158 16.0959 10.6333 16.1127V11.3667H4.77222C4.79675 12.7769 5.01069 14.1774 5.40833 15.5305L6.70295 15.7538ZM4.03924 10.6333C4.06341 9.27248 4.25677 7.91986 4.61484 6.60662L1.48654 7.14642C1.03572 8.25591 0.783821 9.4363 0.742464 10.6333H4.03924ZM1.8575 6.33825L4.85618 5.82083C5.39526 4.06216 6.40378 2.48377 7.77341 1.25576C5.21229 2.11048 3.08838 3.93504 1.8575 6.33825ZM14.2266 1.25576C15.5962 2.48377 16.6047 4.06216 17.1438 5.82083L20.1425 6.33825C18.9116 3.93504 16.7877 2.11048 14.2266 1.25576ZM20.1425 15.6618L17.1438 16.1792C16.6047 17.9378 15.5962 19.5162 14.2266 20.7442C16.7877 19.8895 18.9116 18.065 20.1425 15.6618ZM7.77341 20.7442C6.40378 19.5162 5.39526 17.9378 4.85618 16.1792L1.8575 15.6618C3.08838 18.065 5.21229 19.8895 7.77341 20.7442Z" fill="white"/>
</svg>
