<svg width="24" height="24" viewBox="0 0 24 24" fill="none" xmlns="http://www.w3.org/2000/svg">
<path d="M23.4731 4.267C22.6002 4.65146 21.67 4.90629 20.7003 5.03003C21.6979 4.43198 22.4593 3.49218 22.8173 2.35942C21.8872 2.91623 20.8602 3.30953 19.7658 3.52901C18.8826 2.58479 17.6239 2 16.2507 2C13.5865 2 11.4417 4.17125 11.4417 6.83302C11.4417 7.21601 11.474 7.58426 11.5532 7.93485C7.55245 7.73893 4.01242 5.81368 1.63431 2.88087C1.21913 3.60413 0.975596 4.43198 0.975596 5.32316C0.975596 6.99652 1.83383 8.47987 3.11311 9.33865C2.33997 9.32392 1.5815 9.09854 0.938916 8.74354C0.938916 8.75827 0.938916 8.77742 0.938916 8.79657C0.938916 11.1446 2.60698 13.0949 4.79437 13.5441C4.40266 13.6517 3.97575 13.7032 3.53269 13.7032C3.22461 13.7032 2.91359 13.6856 2.62165 13.6207C3.24515 15.5342 5.01443 16.941 7.1182 16.9866C5.48095 18.2726 3.40213 19.0474 1.15165 19.0474C0.757006 19.0474 0.378502 19.0297 0 18.9811C2.13165 20.3613 4.65793 21.1494 7.38227 21.1494C16.2375 21.1494 21.0788 13.7842 21.0788 7.40014C21.0788 7.18655 21.0715 6.98032 21.0612 6.77557C22.0163 6.09503 22.8188 5.24509 23.4731 4.267Z" fill="white"/>
</svg>
