<svg width="24" height="25" viewBox="0 0 24 25" fill="none" xmlns="http://www.w3.org/2000/svg">
<path fill-rule="evenodd" clip-rule="evenodd" d="M16.1377 1H7.33536C3.28478 1 0 4.29837 0 8.36572V17.2046C0 21.2719 3.28478 24.5703 7.33536 24.5703H16.1377C20.1883 24.5703 23.4731 21.2719 23.4731 17.2046V8.36572C23.4731 4.29837 20.1883 1 16.1377 1ZM21.2725 17.2046C21.2725 20.0478 18.9692 22.3606 16.1377 22.3606H7.33536C4.50391 22.3606 2.20061 20.0478 2.20061 17.2046V8.36572C2.20061 5.52255 4.50391 3.20972 7.33536 3.20972H16.1377C18.9692 3.20972 21.2725 5.52255 21.2725 8.36572V17.2046ZM11.7365 6.89258C8.49579 6.89258 5.86829 9.53098 5.86829 12.7852C5.86829 16.0393 8.49579 18.6777 11.7365 18.6777C14.9772 18.6777 17.6047 16.0393 17.6047 12.7852C17.6047 9.53098 14.9772 6.89258 11.7365 6.89258ZM11.7365 16.468C9.71495 16.468 8.06887 14.8151 8.06887 12.7852C8.06887 10.7537 9.71495 9.10229 11.7365 9.10229C13.7581 9.10229 15.4041 10.7537 15.4041 12.7852C15.4041 14.8151 13.7581 16.468 11.7365 16.468ZM18.8267 6.45068C18.8267 6.88404 18.4766 7.23535 18.0448 7.23535C17.6129 7.23535 17.2628 6.88404 17.2628 6.45068C17.2628 6.01732 17.6129 5.66602 18.0448 5.66602C18.4766 5.66602 18.8267 6.01732 18.8267 6.45068Z" fill="white"/>
</svg>
